<svg width="30" height="30" viewBox="0 0 30 30" fill="none" xmlns="http://www.w3.org/2000/svg">
<path d="M15 0C6.7125 3.81325e-07 -7.15243e-07 6.88684 -7.15243e-07 15.3806C-7.15243e-07 22.1774 4.2975 27.9414 10.2563 29.9735C11.0063 30.1183 11.2812 29.6422 11.2812 29.2339C11.2812 28.8687 11.2688 27.9009 11.2625 26.6187C7.09005 27.5461 6.21 24.5553 6.21 24.5553C5.5275 22.7801 4.54125 22.3053 4.54125 22.3053C3.18255 21.3518 4.64625 21.3714 4.64625 21.3714C6.15255 21.4784 6.9438 22.9561 6.9438 22.9561C8.2812 25.3078 10.455 24.6283 11.3126 24.2357C11.4476 23.2405 11.8338 22.5636 12.2625 22.1788C8.93131 21.794 5.43 20.4714 5.43 14.5785C5.43 12.8998 6.01125 11.5277 6.9738 10.4516C6.80505 10.0629 6.2988 8.499 7.10505 6.38078C7.10505 6.38078 8.3613 5.96861 11.2301 7.9577C12.4301 7.61597 13.7051 7.44641 14.9801 7.43858C16.255 7.44641 17.53 7.61597 18.73 7.9577C21.58 5.96861 22.8362 6.38078 22.8362 6.38078C23.6425 8.499 23.1363 10.0629 22.9862 10.4516C23.9425 11.5277 24.5237 12.8998 24.5237 14.5785C24.5237 20.4871 21.0175 21.7874 17.68 22.1657C18.205 22.6274 18.6925 23.5705 18.6925 25.0118C18.6925 27.0701 18.6737 28.7239 18.6737 29.2235C18.6737 29.6266 18.9363 30.1078 19.705 29.9539C25.7062 27.9347 30 22.167 30 15.3806C30 6.88684 23.2837 -3.81151e-07 15 0Z" fill="#212121"/>
</svg>
