<svg width="50" height="50" fill="none" xmlns="http://www.w3.org/2000/svg"><g clip-path="url(#clip0_87_10)"><path d="M25 4.688a20.312 20.312 0 110 40.624 20.312 20.312 0 010-40.624zM25 50a25 25 0 100-50 25 25 0 000 50zM14.766 21.23c-.45.41-.704.987-.704 1.602a2.18 2.18 0 002.178 2.178h4.073v9.375a3.122 3.122 0 003.125 3.125h3.125a3.122 3.122 0 003.125-3.125V25.01h4.072a2.18 2.18 0 002.178-2.178 2.19 2.19 0 00-.704-1.602l-8.886-8.203a1.99 1.99 0 00-1.358-.527 1.99 1.99 0 00-1.357.527l-8.887 8.204h.02z" fill="#FFA501"/></g><defs><clipPath id="clip0_87_10"><path fill="#fff" d="M0 0h50v50H0z"/></clipPath></defs></svg>