<svg width="50" height="50" viewBox="0 0 50 50" fill="none" xmlns="http://www.w3.org/2000/svg">
<g clip-path="url(#clip0_87_10)">
<path d="M25 4.6875C30.3872 4.6875 35.5538 6.82756 39.3631 10.6369C43.1724 14.4462 45.3125 19.6128 45.3125 25C45.3125 30.3872 43.1724 35.5538 39.3631 39.3631C35.5538 43.1724 30.3872 45.3125 25 45.3125C19.6128 45.3125 14.4462 43.1724 10.6369 39.3631C6.82756 35.5538 4.6875 30.3872 4.6875 25C4.6875 19.6128 6.82756 14.4462 10.6369 10.6369C14.4462 6.82756 19.6128 4.6875 25 4.6875ZM25 50C31.6304 50 37.9893 47.3661 42.6777 42.6777C47.3661 37.9893 50 31.6304 50 25C50 18.3696 47.3661 12.0107 42.6777 7.32233C37.9893 2.63392 31.6304 0 25 0C18.3696 0 12.0107 2.63392 7.32233 7.32233C2.63392 12.0107 0 18.3696 0 25C0 31.6304 2.63392 37.9893 7.32233 42.6777C12.0107 47.3661 18.3696 50 25 50ZM14.7656 21.2305C14.3164 21.6406 14.0625 22.2168 14.0625 22.832C14.0625 24.0332 15.0391 25.0098 16.2402 25.0098H20.3125V34.3848C20.3125 36.1133 21.709 37.5098 23.4375 37.5098H26.5625C28.291 37.5098 29.6875 36.1133 29.6875 34.3848V25.0098H33.7598C34.9609 25.0098 35.9375 24.0332 35.9375 22.832C35.9375 22.2266 35.6836 21.6504 35.2344 21.2305L26.3477 13.0273C25.9766 12.6855 25.498 12.5 24.9902 12.5C24.4824 12.5 24.0039 12.6855 23.6328 13.0273L14.7461 21.2305H14.7656Z" fill="#FFA501"/>
</g>
<defs>
<clipPath id="clip0_87_10">
<rect width="50" height="50" fill="white"/>
</clipPath>
</defs>
</svg>
